<svg xmlns="http://www.w3.org/2000/svg" width="192" height="192" viewBox="0 0 192 192"><defs><filter id="rsh" x="-30%" y="-30%" width="160%" height="170%"><feDropShadow dx="0" dy="4" stdDeviation="3" flood-color="#0d1630" flood-opacity="0.35"/></filter></defs>
<g filter="url(#rsh)">
  <circle cx="96" cy="96" r="64" fill="none" stroke="#6b3d14" stroke-width="36"/>
  <circle cx="96" cy="96" r="64" fill="none" stroke="#c98c4a" stroke-width="28"/>
  <line x1="146.0" y1="96.0" x2="172.1" y2="113.0" stroke="#7c4a1c" stroke-width="5" stroke-linecap="round" opacity="0.75"/><line x1="153.6" y1="102.4" x2="164.2" y2="112.0" stroke="#f2d3a0" stroke-width="3" stroke-linecap="round" opacity="0.7"/><line x1="144.0" y1="110.1" x2="164.2" y2="133.8" stroke="#7c4a1c" stroke-width="5" stroke-linecap="round" opacity="0.75"/><line x1="149.5" y1="118.4" x2="156.9" y2="130.5" stroke="#f2d3a0" stroke-width="3" stroke-linecap="round" opacity="0.7"/><line x1="138.1" y1="123.0" x2="150.8" y2="151.5" stroke="#7c4a1c" stroke-width="5" stroke-linecap="round" opacity="0.75"/><line x1="141.1" y1="132.5" x2="144.7" y2="146.3" stroke="#f2d3a0" stroke-width="3" stroke-linecap="round" opacity="0.7"/><line x1="128.7" y1="133.8" x2="133.0" y2="164.7" stroke="#7c4a1c" stroke-width="5" stroke-linecap="round" opacity="0.75"/><line x1="128.9" y1="143.7" x2="128.6" y2="158.0" stroke="#f2d3a0" stroke-width="3" stroke-linecap="round" opacity="0.7"/><line x1="116.8" y1="141.5" x2="112.1" y2="172.3" stroke="#7c4a1c" stroke-width="5" stroke-linecap="round" opacity="0.75"/><line x1="114.2" y1="151.1" x2="109.8" y2="164.6" stroke="#f2d3a0" stroke-width="3" stroke-linecap="round" opacity="0.7"/><line x1="103.1" y1="145.5" x2="90.0" y2="173.8" stroke="#7c4a1c" stroke-width="5" stroke-linecap="round" opacity="0.75"/><line x1="97.9" y1="154.0" x2="89.9" y2="165.7" stroke="#f2d3a0" stroke-width="3" stroke-linecap="round" opacity="0.7"/><line x1="88.9" y1="145.5" x2="68.3" y2="168.9" stroke="#7c4a1c" stroke-width="5" stroke-linecap="round" opacity="0.75"/><line x1="81.5" y1="152.2" x2="70.5" y2="161.2" stroke="#f2d3a0" stroke-width="3" stroke-linecap="round" opacity="0.7"/><line x1="75.2" y1="141.5" x2="48.9" y2="158.2" stroke="#7c4a1c" stroke-width="5" stroke-linecap="round" opacity="0.75"/><line x1="66.3" y1="145.8" x2="53.2" y2="151.4" stroke="#f2d3a0" stroke-width="3" stroke-linecap="round" opacity="0.7"/><line x1="63.3" y1="133.8" x2="33.3" y2="142.4" stroke="#7c4a1c" stroke-width="5" stroke-linecap="round" opacity="0.75"/><line x1="53.4" y1="135.4" x2="39.3" y2="137.1" stroke="#f2d3a0" stroke-width="3" stroke-linecap="round" opacity="0.7"/><line x1="53.9" y1="123.0" x2="22.8" y2="122.8" stroke="#7c4a1c" stroke-width="5" stroke-linecap="round" opacity="0.75"/><line x1="44.1" y1="121.8" x2="30.0" y2="119.4" stroke="#f2d3a0" stroke-width="3" stroke-linecap="round" opacity="0.7"/><line x1="48.0" y1="110.1" x2="18.2" y2="101.1" stroke="#7c4a1c" stroke-width="5" stroke-linecap="round" opacity="0.75"/><line x1="38.9" y1="106.1" x2="26.1" y2="99.9" stroke="#f2d3a0" stroke-width="3" stroke-linecap="round" opacity="0.7"/><line x1="46.0" y1="96.0" x2="19.9" y2="79.0" stroke="#7c4a1c" stroke-width="5" stroke-linecap="round" opacity="0.75"/><line x1="38.4" y1="89.6" x2="27.8" y2="80.0" stroke="#f2d3a0" stroke-width="3" stroke-linecap="round" opacity="0.7"/><line x1="48.0" y1="81.9" x2="27.8" y2="58.2" stroke="#7c4a1c" stroke-width="5" stroke-linecap="round" opacity="0.75"/><line x1="42.5" y1="73.6" x2="35.1" y2="61.5" stroke="#f2d3a0" stroke-width="3" stroke-linecap="round" opacity="0.7"/><line x1="53.9" y1="69.0" x2="41.2" y2="40.5" stroke="#7c4a1c" stroke-width="5" stroke-linecap="round" opacity="0.75"/><line x1="50.9" y1="59.5" x2="47.3" y2="45.7" stroke="#f2d3a0" stroke-width="3" stroke-linecap="round" opacity="0.7"/><line x1="63.3" y1="58.2" x2="59.0" y2="27.3" stroke="#7c4a1c" stroke-width="5" stroke-linecap="round" opacity="0.75"/><line x1="63.1" y1="48.3" x2="63.4" y2="34.0" stroke="#f2d3a0" stroke-width="3" stroke-linecap="round" opacity="0.7"/><line x1="75.2" y1="50.5" x2="79.9" y2="19.7" stroke="#7c4a1c" stroke-width="5" stroke-linecap="round" opacity="0.75"/><line x1="77.8" y1="40.9" x2="82.2" y2="27.4" stroke="#f2d3a0" stroke-width="3" stroke-linecap="round" opacity="0.7"/><line x1="88.9" y1="46.5" x2="102.0" y2="18.2" stroke="#7c4a1c" stroke-width="5" stroke-linecap="round" opacity="0.75"/><line x1="94.1" y1="38.0" x2="102.1" y2="26.3" stroke="#f2d3a0" stroke-width="3" stroke-linecap="round" opacity="0.7"/><line x1="103.1" y1="46.5" x2="123.7" y2="23.1" stroke="#7c4a1c" stroke-width="5" stroke-linecap="round" opacity="0.75"/><line x1="110.5" y1="39.8" x2="121.5" y2="30.8" stroke="#f2d3a0" stroke-width="3" stroke-linecap="round" opacity="0.7"/><line x1="116.8" y1="50.5" x2="143.1" y2="33.8" stroke="#7c4a1c" stroke-width="5" stroke-linecap="round" opacity="0.75"/><line x1="125.7" y1="46.2" x2="138.8" y2="40.6" stroke="#f2d3a0" stroke-width="3" stroke-linecap="round" opacity="0.7"/><line x1="128.7" y1="58.2" x2="158.7" y2="49.6" stroke="#7c4a1c" stroke-width="5" stroke-linecap="round" opacity="0.75"/><line x1="138.6" y1="56.6" x2="152.7" y2="54.9" stroke="#f2d3a0" stroke-width="3" stroke-linecap="round" opacity="0.7"/><line x1="138.1" y1="69.0" x2="169.2" y2="69.2" stroke="#7c4a1c" stroke-width="5" stroke-linecap="round" opacity="0.75"/><line x1="147.9" y1="70.2" x2="162.0" y2="72.6" stroke="#f2d3a0" stroke-width="3" stroke-linecap="round" opacity="0.7"/><line x1="144.0" y1="81.9" x2="173.8" y2="90.9" stroke="#7c4a1c" stroke-width="5" stroke-linecap="round" opacity="0.75"/><line x1="153.1" y1="85.9" x2="165.9" y2="92.1" stroke="#f2d3a0" stroke-width="3" stroke-linecap="round" opacity="0.7"/>
  <path d="M44 70 A58 58 0 0 1 80 40" fill="none" stroke="#ffe7bd" stroke-width="4" stroke-linecap="round" opacity="0.8"/>
</g></svg>